<?xml version="1.0" encoding="utf-8"?>
<!-- Generator: Adobe Illustrator 22.0.1, SVG Export Plug-In . SVG Version: 6.00 Build 0)  -->
<svg version="1.1" id="Layer_1" xmlns="http://www.w3.org/2000/svg" xmlns:xlink="http://www.w3.org/1999/xlink" x="0px" y="0px"
	 viewBox="0 0 1417.3 1417.3" style="enable-background:new 0 0 1417.3 1417.3;" xml:space="preserve">
<style type="text/css">
	.st0{fill:#9000C9;}
	.st1{fill:#FFFFFF;}
	.st2{fill:#FFBE0C;}
</style>
<g>
	<g>
		<path class="st0" d="M396.4,913.6l197,201.1c77.8,79.4,204,79.4,281.8,0l484.8-495c46.2-47.1,46.2-123.6,0-170.7l-299.5-305.8
			c-52.8-53.9-138.5-53.9-191.4,0L396.4,625.9C318.6,705.4,318.6,834.2,396.4,913.6z"/>
		<g>
			
				<image style="overflow:visible;opacity:0.7;" width="107" height="87" xlink:href="C4B57E3D.png"  transform="matrix(9.9957 0 0 10.2049 302.8489 15.1546)">
			</image>
			<g>
				<g>
					<path class="st1" d="M1147.1,803.1c-2-19.7-10.6-38.2-24.3-52.2L735.3,355.3L512.9,573.3l-27.7-29.4l250.7-245.8L1151.1,722
						c20.2,20.6,32.9,48,35.8,76.9L1147.1,803.1z"/>
				</g>
			</g>
		</g>
		<g>
			<g>
				<path class="st0" d="M1137.9,880.1l-349.8,357.1c-40.8,41.6-106.9,41.6-147.6,0L37.7,621.8C-3,580.2-3,512.7,37.7,471.1
					L387.5,114c40.8-41.6,106.9-41.6,147.6,0l602.7,615.4C1178.6,771,1178.6,838.5,1137.9,880.1z"/>
			</g>
			<g>
				<path class="st1" d="M714.3,1288.8c-31.9,0-63.7-12.4-88-37.1L194.8,811.1L23.6,636.3c-48.5-49.5-48.5-130.1,0-179.6L373.3,99.6
					c48.5-49.5,127.4-49.5,175.9,0L1152,714.9c48.5,49.5,48.5,130.1,0,179.6l-349.8,357.1C778,1276.4,746.1,1288.8,714.3,1288.8z
					 M461.3,103.3c-21.6,0-43.2,8.4-59.7,25.2L51.9,485.5c-32.9,33.6-32.9,88.3,0,121.9l602.7,615.4c32.9,33.6,86.5,33.6,119.4,0
					l349.8-357.1c32.9-33.6,32.9-88.3,0-121.9L521,128.4C504.5,111.6,482.9,103.3,461.3,103.3z"/>
			</g>
		</g>
	</g>
	<g>
		<g>
			<path class="st1" d="M780.6,650.3c-29.2-30.3-76.9-30.7-106.5-0.9l-420,421.7l107.8,107.5l417.9-419.5
				C809.3,729.3,809.7,680.6,780.6,650.3z"/>
		</g>
		<g>
			<path class="st1" d="M934.8,745.5c-29.4-30.1-77.1-30-106.6,0l-365.5,373l108.7,106.6l363.4-370.8
				C964.2,824.3,964.2,775.6,934.8,745.5z"/>
		</g>
	</g>
</g>
<g>
	<path class="st2" d="M952.7,55.2c-47.5-19.2-101-7.5-136.4,29.5L690.9,216.4L565.5,84.8c-35.3-37.1-88.8-48.7-136.3-29.5
		c-46.8,18.9-76.6,62.2-77.6,112.9c-0.1,3.3,0,6.5,0.1,9.9c3.6,77.2,67,137.6,144.3,137.6h98.3L442.1,471.2l56.5,57.7l192.3-196.3
		L883.3,529l56.5-57.7L787.5,315.7h98.3c77.4,0,140.8-60.5,144.3-137.5c0.2-3.4,0.2-6.7,0.1-10C1029.3,117.4,999.5,74.1,952.7,55.2z
		 M431.7,174.3c-0.1-1.5-0.1-2.9-0.1-4.4c0.5-25.3,19-35.5,27-38.7c5.2-2.1,11.3-3.4,17.6-3.4c10.7,0,22.3,3.7,32,13.9l88,92.4
		H496.1C462.1,234.1,433.2,207.2,431.7,174.3z M950.2,174.2c-1.5,33-30.4,59.8-64.4,59.8H785.6l88-92.4
		c15.5-16.3,35.8-16.1,49.7-10.5c7.9,3.2,26.5,13.4,27,38.7C950.3,171.3,950.3,172.7,950.2,174.2z"/>
	<path class="st1" d="M883.3,543.4L690.9,347L498.6,543.4l-70.7-72.2l142.4-145.3h-74.2c-82.7,0-150.5-64.7-154.3-147.4
		c-0.2-3.6-0.2-7.1-0.1-10.6c1.1-55,33.2-101.8,83.9-122.2c51.2-20.6,109-8.1,147.2,31.9l118.2,124.1L809.2,77.6
		c38.2-40.1,95.9-52.6,147.2-31.9l0,0c50.7,20.4,82.8,67.3,83.9,122.3c0.1,3.5,0,7.1-0.1,10.7c-3.8,82.5-71.6,147.2-154.3,147.2
		h-74.2l142.4,145.3L883.3,543.4z M690.9,318.2l192.3,196.3l42.4-43.3L763.3,305.5h122.5c72,0,131-56.1,134.3-127.8
		c0.2-3.2,0.2-6.3,0.1-9.3c-0.9-46.6-28.2-86.4-71.2-103.7l0,0c-43.7-17.6-93-7-125.5,27.2L690.9,231L558.4,91.9
		c-32.5-34.1-81.8-44.8-125.5-27.2c-43,17.3-70.3,57.1-71.2,103.7c-0.1,3,0,6.1,0.1,9.2c3.3,71.7,62.3,127.9,134.3,127.9h122.5
		L456.2,471.2l42.4,43.3L690.9,318.2z M885.8,244.3H761.9l104.6-109.7c18.9-19.9,43.7-19.7,60.5-12.9c7.6,3.1,32.6,15.6,33.3,48
		c0,1.6,0,3.2-0.1,5v0C958.5,213.1,925.1,244.3,885.8,244.3z M809.3,223.9h76.5c28.7,0,53.2-22.5,54.4-50.1c0.1-1.3,0.1-2.5,0-3.6
		c-0.4-18.5-13.1-26.4-20.6-29.5c-10.9-4.4-26.8-4.5-38.9,8.2L809.3,223.9z M619.9,244.3H496.1c-39.3,0-72.6-31.2-74.4-69.5
		c-0.1-1.7-0.1-3.4-0.1-5.1c0.6-32.3,25.6-44.9,33.3-48c6.7-2.7,14.1-4.1,21.3-4.1c10.5,0,25.8,2.9,39.2,17L619.9,244.3z M476.2,138
		c-4.8,0-9.6,0.9-14,2.7c-7.6,3-20.3,10.9-20.6,29.4c0,1.3,0,2.5,0.1,3.7v0c1.3,27.6,25.7,50.1,54.4,50.1h76.5l-71.5-75.1
		C492.5,139.8,482.8,138,476.2,138z"/>
</g>
</svg>
